<?xml version="1.0" encoding="utf-8"?>
<!-- Generator: Adobe Illustrator 24.1.2, SVG Export Plug-In . SVG Version: 6.00 Build 0)  -->
<svg version="1.1" id="Слой_2" xmlns="http://www.w3.org/2000/svg" xmlns:xlink="http://www.w3.org/1999/xlink" x="0px" y="0px"
	 viewBox="0 0 1000 600" style="enable-background:new 0 0 1000 600;" xml:space="preserve">
<style type="text/css">
	.st0{fill:#2B2B2B;}
</style>
<g>
	<path class="st0" d="M500,70c-127,0-230,103-230,230s103,230,230,230s230-103,230-230S627,70,500,70z M500,514
		c-118.2,0-214-95.8-214-214S381.8,86,500,86c63.3,0,120.1,27.5,159.3,71.1c-17.4-3.9-37,1.1-41.2,11.6c-2.9,7.3,3.6,12.9,15.8,35.2
		c11.4,20.8,21,38.2,24,59.7c3.9,27.5-4.6,49.1-6.9,54.4c-7.9,18.7-19.7,30.7-26.8,36.9c-3.3-14.8-13.4-49.2-44.8-75.1
		c-12-9.9-41.3-33.9-74.9-25.8c-4.4,1.1-23.6,5.6-32.2,20.4c-13.6,23.5,2.8,67.1,46.9,101.3c7.3-1,20-1.7,34.6,2.8
		c20.7,6.4,33.2,19.6,38.2,25.5c3.3-1.2,8-3.1,13.4-5.9c0,0,12.9-6.7,25.2-17.5c48.6-42.7,54-90.3,54-90.3
		c4.3-45.6-21.9-83.6-7.9-93.2c3.1-2.1,6.8-1.9,9.9-1.9C704.1,226.3,714,262,714,300C714,418.2,618.2,514,500,514z"/>
	<path class="st0" d="M562.2,394c-17.6-8.8-33.8-9.1-41.3-8.7c-8.9,4.6-17.9,9.2-26.8,13.8c5.8-5.3,11.6-10.6,17.4-15.9
		c-8.9-3.8-19.3-9.5-29.7-18.1c-3.2-2.7-6.1-5.3-8.7-8c-10.6-2.4-21.3-4.8-31.9-7.2c7.5-1.4,15-2.9,22.5-4.3
		c-4.4-6.6-8.9-14.4-13-23.2c-7.9-16.8-12.1-32.4-14.5-44.9c-6.3-4.1-12.6-8.2-18.8-12.3c6.3,1,12.6,1.9,18.8,2.9
		c0.1-7.9,0.9-17.9,3.6-29c4.2-16.9,11.1-29.9,16.7-38.4c1.7-11.6,3.4-23.2,5.1-34.8c0.9,8,1.7,15.9,2.6,23.9
		c3.9-4.9,8.8-10.4,14.8-15.9c6.1-5.7,12.1-10.2,17.4-13.8c2.4-6.5,4.8-13,7.2-19.6c0.7,4.8,1.4,9.7,2.2,14.5
		c4.3-2.3,9.4-4.6,15.2-6.5c10.7-3.6,20.4-5.1,28.1-5.5c5.6-3.5,11.3-6.9,16.9-10.4c-1.2,3.1-2.4,6.3-3.6,9.4
		c9.4,1,18.9,2.1,28.3,3.1c3.1-0.8,6.3-1.6,9.4-2.4c-0.1,1.6-0.2,3.3-0.2,4.9c6.8,1.3,13.6,2.7,20.4,4c2.2-1.2,4.9-2.4,8.2-3.4
		c3.7-1.1,7-1.6,9.7-1.8c-7.9-7.3-17.3-14.8-28.5-21.9c-3.5-2.2-7-4.2-10.3-6.1c1.5,3,3,6,4.5,9c-4.1-4.3-8.3-8.7-12.4-13
		c-8.2-4.2-18.3-8.7-30.4-12.4c-13.5-4.1-25.7-6-35.7-6.9c0.8,2.1,1.5,4.1,2.3,6.2c-5.1-2.4-10.1-4.8-15.2-7.2
		c-3.7-0.1-7.4-0.1-11.2,0c-27.2,0.7-51.2,6.4-71.4,13.8c3.6,1.9,7.2,3.9,10.9,5.8c-6.9-0.4-13.8-0.8-20.7-1.2
		c-17.9,7.6-46.8,22.7-72.8,51.9c-14.9,16.7-24.7,33.3-31.1,46.6c4.1-2,8.1-4,12.2-6c-5.4,4.9-10.8,9.7-16.2,14.6
		c-7.2,16.5-17,44.7-17.1,80.7c-0.1,49.3,17.9,85.9,27.6,102.7c1.2-4.9,2.4-9.7,3.6-14.6c1.1,8.7,2.2,17.3,3.3,26
		c0.4,0.7,1.1,1.7,1.9,2.9c20.9,30.9,46.4,48.4,57.1,55.1c17.7,11.1,32.6,16.4,45.7,21c17.1,6.1,32.1,9.5,43.5,11.6
		c-4.1-7-8.2-14-12.3-21c8.5,7.2,16.9,14.5,25.4,21.7c4.4,0.5,53.4,5.4,84.1-31.2c16.7-19.9,19.6-42.1,20.3-51.5
		c-9.9,10.5-31.7,30.6-66,41.3c-42.2,13.2-77.4,4-86.3,1.4c-33.9-9.7-55.5-29.2-65.2-39.1c5.1,13.5,10.1,27.1,15.2,40.6
		c-8.6-16.3-17.2-32.7-25.8-49c-3.3-3.2-6.5-6.7-9.7-10.4c-31.8-37.4-40.3-82.4-42.1-114.6c-4.1,12.4-8.2,24.7-12.3,37.1
		c3.9-18.7,7.9-37.4,11.8-56c1.1-12.9,4-28.9,10.7-46.2c17.1-44.1,48.7-69.5,64.5-80.5c-9.2,1.7-18.4,3.4-27.5,5.1
		c12.4-3.9,24.9-7.8,37.3-11.8c7.9-5.1,19.6-11.9,34.8-17.7c0,0,4.5-1.7,9.1-3.2c90.8-29.9,168,19.3,178.3,26.1c0,0,0,0,0,0
		c-0.1,0.2-38.8-20.1-79-26.8c-44.6-7.4-81.6,3.5-96.4,8.7c-16.8,5.9-30,13.2-39.2,19c-2.9,7.7-6.3,19.7-5.7,34.6
		c1.2,28.3,16,47.6,21.7,54.4c-5.4-4.2-24.2-19.9-29-47.1c-2.6-15,0.1-27.5,2.2-34.5c-21.5,16.2-49.4,43.3-63.1,83.8
		c-1.8,5.2-3.2,10.3-4.3,15.3c5.1,10.6,13.9,25.8,29,40.5c20.6,20.1,42.6,29.2,55.1,33.3c-12.4-3.5-30.8-10.3-50-23.9
		c-17.4-12.4-29.1-25.9-36.4-35.8c-1.3,12.4-1.6,28.1,0.9,45.9c4.4,30.6,15.4,54.1,23.9,68.9c13.2,6.5,32.1,14,55.8,18.1
		c21,3.6,39.3,3.4,52.9,2.2c-11.1,2.7-26.6,5.2-44.9,4.3c-24.4-1.2-43.7-7.8-55.8-13c1.2,1.6,2.9,3.9,5.1,6.5
		c8.2,10,49.2,60.1,116,64.5c62.6,4.2,106.3-34.4,114.5-42C590.7,416.7,580.6,403.2,562.2,394z"/>
</g>
</svg>
