<?xml version="1.0" standalone="no"?>
<!DOCTYPE svg PUBLIC "-//W3C//DTD SVG 20010904//EN"
 "http://www.w3.org/TR/2001/REC-SVG-20010904/DTD/svg10.dtd">
<svg version="1.0" xmlns="http://www.w3.org/2000/svg"
 width="1918.000000pt" height="1918.000000pt" viewBox="0 0 1918.000000 1918.000000"
 preserveAspectRatio="xMidYMid meet">
<metadata>
Created by potrace 1.14, written by Peter Selinger 2001-2017
</metadata>
<g transform="translate(0.000000,1918.000000) scale(0.100000,-0.100000)"
fill="#000000" stroke="none">
<path d="M9195 19163 c-1056 -50 -2000 -240 -2950 -593 -1100 -410 -2113
-1020 -3015 -1815 -191 -169 -663 -642 -823 -826 -580 -666 -1011 -1307 -1391
-2069 -581 -1167 -894 -2336 -988 -3690 -15 -226 -15 -934 0 -1160 94 -1354
407 -2523 988 -3690 380 -762 811 -1403 1391 -2069 160 -184 632 -657 823
-826 1263 -1114 2743 -1862 4370 -2209 922 -196 1922 -253 2885 -165 1581 145
3072 671 4406 1555 531 352 1004 739 1469 1204 497 496 866 948 1245 1525 936
1424 1460 3021 1556 4745 15 273 6 1022 -15 1270 -87 1005 -290 1877 -641
2765 -420 1059 -1002 1999 -1784 2880 -159 179 -574 592 -761 757 -1196 1055
-2595 1787 -4112 2152 -582 140 -1162 223 -1788 256 -173 9 -705 11 -865 3z
m790 -663 c740 -36 1414 -147 2095 -345 1286 -375 2416 -1002 3450 -1913 161
-142 572 -547 650 -641 l45 -54 -40 6 c-262 46 -555 54 -769 23 -339 -49 -594
-157 -763 -321 -137 -135 -187 -276 -153 -435 20 -93 109 -266 322 -620 462
-770 855 -1519 1053 -2010 335 -826 421 -1619 269 -2470 -123 -689 -408 -1315
-852 -1872 -101 -127 -497 -538 -517 -538 -6 0 -27 69 -47 153 -151 617 -430
1260 -775 1787 -315 479 -657 858 -1118 1236 -762 625 -1413 953 -2105 1061
-163 25 -578 25 -738 0 -479 -76 -984 -293 -1263 -544 -281 -252 -424 -534
-470 -928 -16 -137 -6 -427 21 -585 111 -662 483 -1384 1066 -2065 238 -279
625 -651 946 -909 l98 -78 107 13 c158 20 583 17 748 -5 402 -53 724 -150
1070 -321 400 -197 716 -435 1032 -779 l82 -88 73 28 c547 208 1119 571 1639
1042 719 651 1312 1446 1698 2278 248 535 418 1089 451 1474 13 150 13 537 0
715 -23 314 -77 666 -156 1024 -43 194 -65 285 -213 862 -168 655 -181 923
-56 1105 76 109 194 162 386 171 l116 6 88 -163 c533 -989 884 -2119 1004
-3240 40 -373 46 -498 46 -970 0 -561 -21 -863 -95 -1345 -335 -2203 -1480
-4190 -3227 -5602 -575 -465 -1220 -863 -1893 -1170 -2140 -976 -4601 -1064
-6805 -243 -1037 387 -1946 933 -2815 1694 -157 137 -620 601 -764 766 -1332
1522 -2084 3344 -2217 5375 -15 227 -15 827 0 1050 99 1487 519 2842 1264
4075 1045 1730 2644 3056 4532 3760 1110 413 2334 606 3500 550z"/>
<path d="M9525 18163 c-798 -37 -1475 -148 -2224 -364 -168 -48 -581 -183
-610 -199 -9 -5 52 -42 180 -110 212 -113 243 -130 237 -135 -2 -2 -193 7
-425 21 l-421 25 -129 -57 c-775 -341 -1503 -803 -2158 -1368 -183 -158 -619
-592 -779 -775 -378 -434 -694 -875 -971 -1357 -90 -155 -285 -524 -285 -537
0 -4 108 47 241 114 133 66 243 119 245 117 1 -2 -145 -136 -326 -298 l-328
-295 -56 -132 c-307 -728 -517 -1535 -605 -2328 -39 -352 -45 -475 -46 -920 0
-448 7 -586 46 -940 121 -1094 460 -2162 1002 -3158 l92 -169 71 292 c40 160
74 293 77 296 7 7 11 -20 78 -561 l62 -500 56 -85 c239 -365 580 -784 926
-1139 788 -806 1704 -1418 2740 -1831 653 -261 1381 -490 1965 -620 168 -38
475 -99 478 -95 2 2 -108 193 -243 425 -136 231 -246 423 -244 425 2 2 237
-196 522 -440 l518 -443 77 -9 c114 -12 608 -9 757 5 1037 99 1877 473 2500
1113 565 581 899 1309 1003 2187 l18 152 -99 128 c-286 365 -574 635 -917 861
-439 289 -903 467 -1413 541 -166 25 -449 43 -574 38 l-98 -4 -549 -282 c-302
-155 -550 -281 -552 -280 -1 2 158 149 353 327 l354 323 -93 42 c-519 235
-1008 565 -1404 948 l-100 97 -657 148 c-361 81 -657 150 -657 153 0 3 197 43
438 89 240 45 447 85 458 88 20 4 16 14 -56 126 -302 474 -582 1058 -775 1617
-103 301 -230 768 -276 1023 -11 58 -18 72 -43 91 -17 13 -192 128 -389 256
-197 128 -356 234 -354 236 1 2 174 -23 382 -55 209 -32 381 -58 382 -57 1 1
6 89 12 196 14 246 34 427 72 650 106 635 363 1312 703 1853 l65 103 101 690
c103 707 111 756 116 739 2 -5 26 -221 54 -480 28 -258 52 -474 53 -478 1 -5
44 41 95 102 307 368 709 740 1089 1009 l152 107 29 75 c16 41 82 221 147 400
66 179 120 327 122 329 8 11 13 -21 53 -289 24 -157 44 -287 46 -289 2 -3 70
28 152 67 461 223 1069 387 1547 418 92 5 105 9 160 42 33 20 190 116 350 214
159 97 290 176 292 174 1 -1 -29 -85 -67 -185 -39 -101 -70 -186 -70 -190 0
-4 264 -36 587 -71 l587 -64 186 47 c102 26 190 47 195 47 6 0 9 -37 7 -99
l-4 -99 54 -11 c376 -76 769 -151 786 -151 11 0 36 9 54 19 59 34 261 109 363
135 55 14 152 34 217 43 l116 18 -126 112 c-383 338 -786 632 -1217 890 -110
66 -215 128 -233 137 l-32 17 85 -172 c48 -94 85 -173 83 -175 -2 -2 -116 114
-252 257 l-248 260 -109 54 c-740 372 -1541 615 -2372 720 -200 25 -267 30
-267 19 0 -4 18 -56 40 -116 23 -61 40 -114 38 -118 -2 -3 -142 60 -313 141
l-310 148 -265 -1 c-146 -1 -292 -3 -325 -5z m625 -683 c601 -34 1136 -115
1725 -265 921 -233 1855 -624 2627 -1098 81 -50 146 -92 144 -94 -1 -2 -105
45 -231 103 -1282 592 -2466 949 -3495 1053 -425 44 -1003 52 -1400 21 -1327
-104 -2509 -476 -3627 -1142 l-152 -91 -31 -86 c-79 -216 -144 -495 -182 -771
-29 -210 -31 -637 -5 -845 87 -688 336 -1290 767 -1860 114 -151 110 -144 75
-117 -161 126 -380 347 -530 537 -606 762 -819 1699 -599 2630 20 83 38 161
41 173 5 19 -15 8 -102 -60 -480 -371 -963 -839 -1329 -1287 -648 -794 -1117
-1719 -1335 -2630 l-30 -124 51 -101 c432 -862 1065 -1602 1849 -2162 392
-281 881 -543 1324 -710 68 -26 123 -49 121 -52 -13 -12 -514 174 -761 283
-1005 444 -1939 1180 -2604 2054 -41 54 -73 87 -75 80 -35 -106 -43 -1108 -13
-1439 86 -923 295 -1735 658 -2557 69 -156 250 -519 332 -667 l55 -98 103 -50
c1310 -630 2858 -917 4334 -803 106 8 56 -7 -175 -53 -987 -197 -1932 -171
-2925 79 -231 59 -635 190 -847 277 -81 33 -145 54 -141 48 17 -30 142 -187
266 -335 870 -1041 1931 -1813 3078 -2242 1034 -386 2160 -475 3254 -258 1013
201 2049 696 2898 1384 82 66 165 133 185 149 l37 30 -40 -43 c-61 -65 -317
-299 -440 -402 -1404 -1173 -3253 -1690 -5055 -1413 -1246 191 -2375 758
-3329 1670 -63 60 -111 100 -107 89 4 -11 126 -337 271 -725 145 -388 280
-747 300 -799 19 -52 34 -95 32 -97 -2 -2 -239 445 -528 994 l-524 997 -122
128 c-486 508 -853 1025 -1168 1642 -459 902 -751 1968 -849 3100 -9 99 -19
214 -23 255 l-6 75 -248 -745 c-136 -410 -248 -740 -248 -733 -1 6 66 330 148
720 83 389 190 899 239 1133 50 234 95 477 101 540 61 613 223 1277 456 1865
496 1253 1389 2381 2543 3215 57 41 98 76 90 78 -7 1 -250 -42 -541 -96 -290
-54 -524 -95 -520 -91 5 3 170 57 368 119 1010 315 1133 357 1214 408 1132
722 2490 1146 3886 1215 156 8 599 6 765 -3z"/>
</g>
</svg>
