<?xml version="1.0" encoding="utf-8"?>
<!-- Generator: Adobe Illustrator 24.1.2, SVG Export Plug-In . SVG Version: 6.00 Build 0)  -->
<svg version="1.1" id="Слой_1" xmlns="http://www.w3.org/2000/svg" xmlns:xlink="http://www.w3.org/1999/xlink" x="0px" y="0px"
	 viewBox="0 0 1000 600" style="enable-background:new 0 0 1000 600;" xml:space="preserve">
<style type="text/css">
	.st0{fill:#2B2B2B;}
	.st1{display:none;}
</style>
<g>
	<g>
		<path class="st0" d="M546,144c-3.1-2-6.2-3.7-9.1-5.4c1.3,2.6,2.7,5.3,4,7.9c-3.7-3.8-7.3-7.7-11-11.5
			c-7.2-3.7-16.2-7.7-26.9-10.9c-12-3.6-22.8-5.3-31.6-6.1c0.7,1.8,1.4,3.7,2.1,5.5c-4.5-2.1-9-4.3-13.5-6.4
			c-3.2,0.1-6.5,0.1-9.9,0.2c-24.1,0.6-45.4,5.7-63.2,12.2c3.2,1.7,6.4,3.4,9.6,5.1c-6.1-0.3-12.2-0.7-18.3-1
			c-15.8,6.7-41.4,20.1-64.4,45.9c-13.2,14.8-21.8,29.5-27.5,41.2c3.6-1.8,7.2-3.5,10.8-5.3c-4.8,4.3-9.6,8.6-14.4,12.9
			c-6.4,14.6-15.1,39.6-15.1,71.4c-0.1,43.6,15.9,76,24.4,90.9c1.1-4.3,2.1-8.6,3.2-12.9c1,7.7,1.9,15.4,2.9,23
			c0.4,0.6,1,1.5,1.7,2.6c18.5,27.4,41.1,42.9,50.6,48.8c15.7,9.8,28.9,14.5,40.4,18.6c15.1,5.4,28.4,8.4,38.5,10.3
			c-3.6-6.2-7.3-12.4-10.9-18.6c7.5,6.4,15,12.8,22.5,19.2c3.9,0.5,47.3,4.8,74.4-27.6c14.8-17.6,17.4-37.2,18-45.6
			c-8.8,9.3-28.1,27.1-58.4,36.6c-37.4,11.7-68.5,3.5-76.3,1.3c-30-8.6-49.1-25.8-57.7-34.6c4.5,12,9,24,13.5,35.9
			c-7.6-14.5-15.2-28.9-22.9-43.4c-2.9-2.9-5.8-5.9-8.6-9.2c-28.2-33.1-35.7-72.9-37.3-101.5c-3.6,10.9-7.2,21.9-10.9,32.8
			c3.5-16.5,7-33.1,10.5-49.6c1-11.4,3.5-25.6,9.4-40.9c15.1-39,43.1-61.5,57.1-71.2c-8.1,1.5-16.3,3-24.4,4.5
			c11-3.5,22-6.9,33-10.4c7-4.5,17.3-10.5,30.8-15.6c0,0,4-1.5,8.1-2.8c80.4-26.5,148.7,17.1,157.8,23.1c-0.1,0.2-34.4-17.8-70-23.8
			c-39.5-6.6-72.2,3.1-85.3,7.7c-14.9,5.2-26.6,11.7-34.7,16.8c-2.6,6.8-5.6,17.5-5,30.7c0.5,12.3,4,22.8,7.9,30.9
			c3.4,0,6.8,0,10.2,0c0,5.3,0,10.6,0,16c0.4,0.5,0.7,0.9,1,1.2c-0.3-0.2-0.6-0.5-1-0.8c0,9,0,18,0,27.1c4.2,0.7,8.4,1.3,12.6,2
			c0.1-7,0.8-15.8,3.2-25.7c3.7-15,9.8-26.4,14.8-34c1.5-10.3,3-20.5,4.5-30.8c0.8,7,1.5,14.1,2.3,21.1c3.5-4.3,7.8-9.2,13.1-14.1
			c5.4-5,10.7-9,15.4-12.2c2.1-5.8,4.3-11.5,6.4-17.3c0.6,4.3,1.3,8.6,1.9,12.8c3.8-2,8.3-4,13.5-5.8c9.5-3.2,18.1-4.5,24.8-4.9
			c5-3.1,10-6.1,14.9-9.2c-1.1,2.8-2.1,5.6-3.2,8.3c8.3,0.9,16.7,1.9,25,2.8c2.8-0.7,5.6-1.4,8.3-2.1c-0.1,1.5-0.1,2.9-0.2,4.4
			c6,1.2,12,2.4,18,3.6c1.9-1,4.3-2.1,7.2-3c3.3-1,6.2-1.4,8.6-1.6C564.3,157,556,150.3,546,144z"/>
		<path class="st0" d="M301.6,244.8c-1.6,4.6-2.8,9.1-3.8,13.6c4.5,9.4,12.3,22.8,25.7,35.8c6.2,6.1,12.6,11,18.7,15.1
			c-1-1.5-1.9-3-2.9-4.5c0-26.4,0-52.7,0-79.1c8.7,0,17.3,0,26,0c-4.3-6.5-8.1-14.6-9.9-24.5c-2.3-13.3,0.1-24.3,2-30.6
			C338.5,184.9,313.8,208.9,301.6,244.8z"/>
		<path class="st0" d="M374.1,394.1c-21.6-1-38.6-6.9-49.4-11.5c1,1.4,2.6,3.4,4.5,5.8c7.3,8.9,43.5,53.2,102.6,57.1
			c55.4,3.7,94-30.5,101.4-37.2c-3.7-5.6-12.6-17.5-28.9-25.7c-15.6-7.8-29.9-8-36.6-7.7c-7.9,4.1-15.8,8.1-23.7,12.2
			c5.1-4.7,10.3-9.4,15.4-14.1c-7.9-3.4-17.1-8.4-26.3-16c-2.8-2.4-5.4-4.7-7.7-7.1c-9.4-2.1-18.8-4.3-28.2-6.4
			c6.6-1.3,13.3-2.6,19.9-3.8c-3.9-5.9-7.9-12.7-11.5-20.5c-7-14.8-10.7-28.6-12.8-39.8c-4.2-2.7-8.4-5.5-12.6-8.2
			c0,23.9,0,47.8,0,71.7c-1.2,0.2-2.3,0.5-3.5,0.7c-12.4-8-24.9-15.9-37.3-23.9c0-0.2,0-0.4,0-0.7c3.9,1.3,7.7,2.5,11.6,3.8
			c-2.2-3.4-4.4-6.8-6.6-10.2c-5.3-2.8-10.8-6.1-16.4-10.1c-15.4-11-25.8-22.9-32.3-31.7c-1.1,11-1.4,24.9,0.8,40.7
			c3.9,27.1,13.6,47.9,21.2,60.9c11.7,5.7,28.4,12.4,49.4,16c18.6,3.2,34.8,3,46.8,1.9C404,392.7,390.4,394.9,374.1,394.1z
			 M405.8,363.8c-8.4-3.7-16.7-7.4-25.1-11.1h25.1C405.8,356.4,405.8,360.1,405.8,363.8z"/>
	</g>
	<path class="st0" d="M455.7,225.7v20.7h-40.8v-20.7H455.7z M455.7,254.4v130.1h-40.8V254.4H455.7z"/>
	<path class="st0" d="M559.9,254.4v100.2c0,13.5-0.3,22.3-0.9,26.2c-0.6,4-2.8,8.1-6.6,12.6c-3.8,4.4-9.1,7.8-15.8,10.1
		s-15.3,3.5-25.5,3.5c-12.6,0-22.7-2.1-30.4-6.4c-7.6-4.3-11.6-12.7-11.9-25.2h38.4c0,5.8,2.1,8.6,6.3,8.6c3,0,5-0.9,6-2.7
		c1-1.8,1.5-5.5,1.5-11.1v-9.8c-3.4,3.1-7,5.4-10.7,7c-3.8,1.6-7.7,2.4-11.8,2.4c-7.1,0-13-1.4-17.6-4.3s-7.8-6.7-9.5-11.3
		c-1.7-4.7-2.5-11.3-2.5-20v-47.3c0-12.4,2.2-21.2,6.7-26.7s11.2-8.1,20.3-8.1c5,0,9.5,1,13.6,3c4.1,2,7.7,5.1,10.9,9.1l2.8-9.8
		L559.9,254.4L559.9,254.4z M520.2,288.9c0-5.9-0.3-9.7-1-11.4c-0.7-1.6-2.2-2.5-4.6-2.5c-2.3,0-3.9,0.9-4.9,2.8
		c-0.9,1.9-1.4,5.5-1.4,11v43.7c0,5.8,0.4,9.6,1.1,11.3c0.7,1.7,2.2,2.6,4.5,2.6c2.6,0,4.3-1,5.1-3.1s1.2-6.8,1.2-14.2V288.9z"/>
	<path class="st0" d="M613.7,225.7v35.7c3.4-3.1,7.1-5.5,11-7.1c4-1.6,8.2-2.4,12.7-2.4c6.9,0,12.8,1.8,17.7,5.3
		c4.9,3.5,7.8,7.6,8.9,12.2c1.1,4.6,1.6,13,1.6,25.2v89.7H626v-91.6c0-7.6-0.4-12.5-1.1-14.6c-0.8-2.2-2.4-3.2-5-3.2
		c-2.4,0-4.1,1.1-4.9,3.3c-0.8,2.2-1.3,6.6-1.3,13.2v92.9h-39.6V225.7H613.7z"/>
	<path class="st0" d="M721,237v20.5h10.7v20.6H721v69.6c0,8.6,0.4,13.3,1.3,14.3c0.9,1,4.6,1.5,11,1.5v21h-16
		c-9,0-15.5-0.4-19.3-1.1c-3.9-0.8-7.3-2.5-10.2-5.2s-4.8-5.8-5.5-9.3s-1.1-11.7-1.1-24.7v-66.1h-8.5v-20.6h8.5V237H721z"/>
	<path class="st0" d="M587.1,421.2h-15v-3c0-2.6-0.1-4.2-0.4-4.9s-1-1-2.2-1c-0.9,0-1.7,0.3-2.1,0.9c-0.5,0.6-0.7,1.6-0.7,2.8
		c0,1.7,0.1,3,0.4,3.7c0.2,0.8,0.9,1.7,2.1,2.6c1.2,0.9,3.6,2.3,7.3,4.1c4.9,2.4,8.1,4.7,9.7,6.8c1.5,2.1,2.3,5.2,2.3,9.3
		c0,4.5-0.6,7.9-1.8,10.2s-3.1,4.1-5.9,5.3c-2.7,1.2-6.1,1.9-9.9,1.9c-4.3,0-8-0.7-11-2c-3.1-1.3-5.2-3.2-6.3-5.4
		c-1.1-2.3-1.7-5.7-1.7-10.4v-2.7h15v3.5c0,3,0.2,4.9,0.6,5.8c0.4,0.9,1.1,1.3,2.2,1.3c1.2,0,2-0.3,2.5-0.9s0.7-1.9,0.7-3.8
		c0-2.7-0.3-4.3-0.9-5c-0.6-0.7-3.9-2.7-9.8-5.9c-5-2.8-8-5.3-9.1-7.6c-1.1-2.3-1.6-5-1.6-8.1c0-4.4,0.6-7.7,1.8-9.8
		c1.2-2.1,3.2-3.7,6-4.9c2.8-1.1,6.1-1.7,9.8-1.7s6.8,0.5,9.4,1.4c2.6,0.9,4.6,2.2,5.9,3.7c1.4,1.5,2.2,3,2.5,4.3s0.4,3.4,0.4,6.2
		v3.3L587.1,421.2L587.1,421.2z"/>
	<path class="st0" d="M631.1,422.9v13.6c0,5-0.3,8.7-0.8,11s-1.6,4.5-3.2,6.5c-1.6,2-3.8,3.5-6.3,4.5c-2.6,1-5.5,1.4-8.9,1.4
		c-3.7,0-6.9-0.4-9.5-1.2s-4.6-2.1-6-3.7c-1.4-1.7-2.5-3.7-3.1-6c-0.6-2.4-0.9-5.9-0.9-10.6v-14.2c0-5.2,0.6-9.2,1.7-12.1
		s3.1-5.2,6-7s6.6-2.6,11.1-2.6c3.8,0,7.1,0.6,9.8,1.7s4.8,2.6,6.3,4.4s2.5,3.7,3,5.6S631.1,419,631.1,422.9z M614.2,418.7
		c0-2.8-0.2-4.6-0.5-5.4c-0.3-0.7-1-1.1-2-1.1s-1.7,0.4-2,1.1s-0.5,2.5-0.5,5.4v25.1c0,2.6,0.2,4.3,0.5,5.1c0.3,0.8,1,1.2,2,1.2
		s1.7-0.4,2-1.1s0.5-2.3,0.5-4.7V418.7z"/>
	<path class="st0" d="M653.9,403.4l-0.3,5.1c1.2-2,2.7-3.6,4.5-4.6s3.8-1.5,6.1-1.5c2.9,0,5.3,0.7,7.1,2.1s3,3.1,3.6,5.2
		c0.5,2.1,0.8,5.5,0.8,10.4V459h-16.9v-38.5c0-3.8-0.1-6.2-0.4-7s-0.9-1.3-2.1-1.3c-1.2,0-2,0.5-2.3,1.4c-0.3,1-0.5,3.5-0.5,7.7V459
		h-16.9v-55.5h17.3L653.9,403.4L653.9,403.4z"/>
	<path class="st0" d="M720,403.4v42.8c0,5.8-0.1,9.5-0.4,11.2c-0.3,1.7-1.2,3.5-2.8,5.4s-3.9,3.3-6.8,4.3c-2.9,1-6.5,1.5-10.9,1.5
		c-5.4,0-9.7-0.9-13-2.7c-3.3-1.8-5-5.4-5.1-10.8h16.4c0,2.5,0.9,3.7,2.7,3.7c1.3,0,2.1-0.4,2.6-1.1c0.4-0.8,0.6-2.3,0.6-4.7v-4.2
		c-1.5,1.3-3,2.3-4.6,3s-3.3,1-5,1c-3,0-5.5-0.6-7.5-1.8s-3.3-2.8-4-4.8s-1.1-4.8-1.1-8.5v-20.2c0-5.3,0.9-9.1,2.8-11.4
		c1.9-2.3,4.8-3.5,8.7-3.5c2.1,0,4.1,0.4,5.8,1.3s3.3,2.2,4.7,3.9l1.2-4.2H720V403.4z M703,418.1c0-2.5-0.1-4.2-0.4-4.9
		c-0.3-0.7-0.9-1-1.9-1s-1.7,0.4-2.1,1.2c-0.4,0.8-0.6,2.4-0.6,4.7v18.7c0,2.5,0.2,4.1,0.5,4.8c0.3,0.7,0.9,1.1,1.9,1.1
		c1.1,0,1.8-0.4,2.2-1.3c0.3-0.9,0.5-2.9,0.5-6.1v-17.2L703,418.1L703,418.1z"/>
</g>
<path class="st1" d="M380.5,225.7v127h25.1v31.8h-66.4V225.7H380.5z"/>
</svg>
